<svg xmlns="http://www.w3.org/2000/svg" version="1.1" xmlns:xlink="http://www.w3.org/1999/xlink" width="200" height="200"><svg xmlns="http://www.w3.org/2000/svg" version="1.1" xmlns:xlink="http://www.w3.org/1999/xlink" viewBox="0 0 200 200"><rect width="200" height="200" fill="url('#gradient')"></rect><defs><linearGradient id="SvgjsLinearGradient1001" gradientTransform="rotate(141 0.5 0.5)"><stop offset="0%" stop-color="#2835b5"></stop><stop offset="100%" stop-color="#962381"></stop></linearGradient></defs><g><g fill="#2af585" transform="matrix(8.03452334248725,0,0,8.03452334248725,0.24939596202851533,160.2989813029041)" stroke="#fbc952" stroke-width="0"><path d="M9.98 0L9.15-2.66L4.45-2.66L3.63 0L-0.03 0L5.19-14.22L8.41-14.22L13.66 0L9.98 0ZM6.80-10.23L5.27-5.30L8.33-5.30L6.80-10.23ZM21.09 0L18.79-3.94L17.86-3.01L17.86 0L14.57 0L14.57-15.01L17.86-15.01L17.86-7.04L18.19-7.48L20.67-10.57L24.62-10.57L20.92-6.22L24.86 0L21.09 0Z"></path></g></g></svg><style>@media (prefers-color-scheme: light) { :root { filter: none; } }
@media (prefers-color-scheme: dark) { :root { filter: none; } }
</style></svg>